<svg version="1.0" xmlns="http://www.w3.org/2000/svg"
 width="64pt" height="64pt" viewBox="0 0 64 64"
 preserveAspectRatio="xMidYMid meet">

<g transform="translate(0,64) scale(0,-0)"
fill="#000" stroke="none">
<path d="M45 547 c-3 -7 -4 -114 -3 -237 l3 -225 275 0 275 0 0 235 0 235
-273 3 c-215 2 -274 0 -277 -11z m535 -227 l0 -220 -260 0 -260 0 0 220 0 220
260 0 260 0 0 -220z"/>
<path d="M170 425 c-7 -9 -21 -13 -31 -10 -23 8 -25 -8 -4 -25 13 -11 20 -9
40 10 14 13 25 27 25 32 0 13 -17 9 -30 -7z"/>
<path d="M240 410 c0 -5 14 -10 30 -10 17 0 30 5 30 10 0 6 -13 10 -30 10 -16
0 -30 -4 -30 -10z"/>
<path d="M320 410 c0 -6 40 -10 100 -10 60 0 100 4 100 10 0 6 -40 10 -100 10
-60 0 -100 -4 -100 -10z"/>
<path d="M170 345 c-7 -9 -21 -13 -31 -10 -23 8 -25 -8 -4 -25 13 -11 20 -9
40 10 14 13 25 27 25 32 0 13 -17 9 -30 -7z"/>
<path d="M240 330 c0 -6 53 -10 140 -10 87 0 140 4 140 10 0 6 -53 10 -140 10
-87 0 -140 -4 -140 -10z"/>
<path d="M170 265 c-7 -9 -21 -13 -31 -10 -23 8 -25 -8 -4 -25 13 -11 20 -9
40 10 14 13 25 27 25 32 0 13 -17 9 -30 -7z"/>
<path d="M240 250 c0 -6 33 -10 80 -10 47 0 80 4 80 10 0 6 -33 10 -80 10 -47
0 -80 -4 -80 -10z"/>
<path d="M420 250 c0 -5 23 -10 50 -10 28 0 50 5 50 10 0 6 -22 10 -50 10 -27
0 -50 -4 -50 -10z"/>
<path d="M90 140 c0 -11 5 -20 10 -20 6 0 10 9 10 20 0 11 -4 20 -10 20 -5 0
-10 -9 -10 -20z"/>
<path d="M140 140 c0 -11 5 -20 10 -20 6 0 10 9 10 20 0 11 -4 20 -10 20 -5 0
-10 -9 -10 -20z"/>
<path d="M190 140 c0 -11 5 -20 10 -20 6 0 10 9 10 20 0 11 -4 20 -10 20 -5 0
-10 -9 -10 -20z"/>
<path d="M240 140 c0 -11 5 -20 10 -20 6 0 10 9 10 20 0 11 -4 20 -10 20 -5 0
-10 -9 -10 -20z"/>
<path d="M290 140 c0 -11 5 -20 10 -20 6 0 10 9 10 20 0 11 -4 20 -10 20 -5 0
-10 -9 -10 -20z"/>
<path d="M340 140 c0 -11 5 -20 10 -20 6 0 10 9 10 20 0 11 -4 20 -10 20 -5 0
-10 -9 -10 -20z"/>
<path d="M390 140 c0 -11 5 -20 10 -20 6 0 10 9 10 20 0 11 -4 20 -10 20 -5 0
-10 -9 -10 -20z"/>
<path d="M440 140 c0 -11 5 -20 10 -20 6 0 10 9 10 20 0 11 -4 20 -10 20 -5 0
-10 -9 -10 -20z"/>
<path d="M490 140 c0 -11 5 -20 10 -20 6 0 10 9 10 20 0 11 -4 20 -10 20 -5 0
-10 -9 -10 -20z"/>
<path d="M540 140 c0 -11 5 -20 10 -20 6 0 10 9 10 20 0 11 -4 20 -10 20 -5 0
-10 -9 -10 -20z"/>
</g>
</svg>
